<mxfile host="app.diagrams.net" agent="Mozilla/5.0 (Windows NT 10.0; Win64; x64) AppleWebKit/537.36 (KHTML, like Gecko) Chrome/141.0.0.0 Safari/537.36" version="28.2.7">
  <diagram name="Страница — 1" id="TODJSmzItzj4n60lvI9p">
    <mxGraphModel dx="2951" dy="2793" grid="1" gridSize="10" guides="1" tooltips="1" connect="1" arrows="1" fold="1" page="1" pageScale="1" pageWidth="827" pageHeight="1169" math="0" shadow="0">
      <root>
        <mxCell id="0" />
        <mxCell id="1" parent="0" />
        <mxCell id="SWDVZIPFguw2Itc3JiJM-81" value="" style="rounded=0;whiteSpace=wrap;html=1;" vertex="1" parent="1">
          <mxGeometry y="-40" width="1580" height="1270" as="geometry" />
        </mxCell>
        <mxCell id="SWDVZIPFguw2Itc3JiJM-2" value="Интернет-банк" style="rounded=1;whiteSpace=wrap;html=1;fillColor=#fff2cc;strokeColor=#d6b656;" vertex="1" parent="1">
          <mxGeometry x="827" y="1150" width="120" height="60" as="geometry" />
        </mxCell>
        <mxCell id="SWDVZIPFguw2Itc3JiJM-36" style="edgeStyle=orthogonalEdgeStyle;rounded=0;orthogonalLoop=1;jettySize=auto;html=1;" edge="1" parent="1" source="SWDVZIPFguw2Itc3JiJM-3" target="SWDVZIPFguw2Itc3JiJM-10">
          <mxGeometry relative="1" as="geometry">
            <Array as="points">
              <mxPoint x="1200" y="550" />
              <mxPoint x="1200" y="550" />
            </Array>
          </mxGeometry>
        </mxCell>
        <mxCell id="SWDVZIPFguw2Itc3JiJM-37" value="Загрузка данных о клиентах,&amp;nbsp;&lt;div&gt;история оплаты,&amp;nbsp;&lt;/div&gt;&lt;div&gt;платежи&lt;/div&gt;&lt;div&gt;(Ежедневно, БД)&lt;/div&gt;" style="edgeLabel;html=1;align=center;verticalAlign=middle;resizable=0;points=[];" vertex="1" connectable="0" parent="SWDVZIPFguw2Itc3JiJM-36">
          <mxGeometry x="0.3064" y="-1" relative="1" as="geometry">
            <mxPoint x="48" y="1" as="offset" />
          </mxGeometry>
        </mxCell>
        <mxCell id="SWDVZIPFguw2Itc3JiJM-42" style="edgeStyle=orthogonalEdgeStyle;rounded=0;orthogonalLoop=1;jettySize=auto;html=1;entryX=0.25;entryY=0;entryDx=0;entryDy=0;" edge="1" parent="1" source="SWDVZIPFguw2Itc3JiJM-3" target="SWDVZIPFguw2Itc3JiJM-9">
          <mxGeometry relative="1" as="geometry">
            <Array as="points">
              <mxPoint x="580" y="440" />
            </Array>
          </mxGeometry>
        </mxCell>
        <mxCell id="SWDVZIPFguw2Itc3JiJM-45" value="Передача оформленных заявок&lt;div&gt;(Ежедневно, БД)&lt;/div&gt;" style="edgeLabel;html=1;align=center;verticalAlign=middle;resizable=0;points=[];" vertex="1" connectable="0" parent="SWDVZIPFguw2Itc3JiJM-42">
          <mxGeometry x="-0.1179" y="2" relative="1" as="geometry">
            <mxPoint as="offset" />
          </mxGeometry>
        </mxCell>
        <mxCell id="SWDVZIPFguw2Itc3JiJM-57" style="edgeStyle=orthogonalEdgeStyle;rounded=0;orthogonalLoop=1;jettySize=auto;html=1;" edge="1" parent="1" source="SWDVZIPFguw2Itc3JiJM-3" target="SWDVZIPFguw2Itc3JiJM-6">
          <mxGeometry relative="1" as="geometry">
            <Array as="points">
              <mxPoint x="1470" y="820" />
              <mxPoint x="1470" y="820" />
            </Array>
          </mxGeometry>
        </mxCell>
        <mxCell id="SWDVZIPFguw2Itc3JiJM-59" value="Отправка СМС-оповещения" style="edgeLabel;html=1;align=center;verticalAlign=middle;resizable=0;points=[];" vertex="1" connectable="0" parent="SWDVZIPFguw2Itc3JiJM-57">
          <mxGeometry x="0.0105" y="-4" relative="1" as="geometry">
            <mxPoint x="4" y="17" as="offset" />
          </mxGeometry>
        </mxCell>
        <mxCell id="SWDVZIPFguw2Itc3JiJM-3" value="АБС" style="rounded=1;whiteSpace=wrap;html=1;fillColor=#fff2cc;strokeColor=#d6b656;" vertex="1" parent="1">
          <mxGeometry x="1280" y="-30" width="260" height="825" as="geometry" />
        </mxCell>
        <mxCell id="SWDVZIPFguw2Itc3JiJM-4" value="Система кол-центра" style="rounded=1;whiteSpace=wrap;html=1;fillColor=#fff2cc;strokeColor=#d6b656;" vertex="1" parent="1">
          <mxGeometry x="760" y="110" width="120" height="60" as="geometry" />
        </mxCell>
        <mxCell id="SWDVZIPFguw2Itc3JiJM-5" value="Система партнёрского кол-центра" style="rounded=1;whiteSpace=wrap;html=1;fillColor=#f5f5f5;fontColor=#333333;strokeColor=#666666;" vertex="1" parent="1">
          <mxGeometry x="760" y="210" width="120" height="60" as="geometry" />
        </mxCell>
        <mxCell id="SWDVZIPFguw2Itc3JiJM-58" value="" style="edgeStyle=orthogonalEdgeStyle;rounded=0;orthogonalLoop=1;jettySize=auto;html=1;" edge="1" parent="1" source="SWDVZIPFguw2Itc3JiJM-6" target="SWDVZIPFguw2Itc3JiJM-7">
          <mxGeometry relative="1" as="geometry" />
        </mxCell>
        <mxCell id="SWDVZIPFguw2Itc3JiJM-6" value="СМС-шлюз телеком-оператора" style="rounded=1;whiteSpace=wrap;html=1;fillColor=#fff2cc;strokeColor=#d6b656;" vertex="1" parent="1">
          <mxGeometry x="1410" y="890" width="120" height="60" as="geometry" />
        </mxCell>
        <mxCell id="SWDVZIPFguw2Itc3JiJM-55" style="edgeStyle=orthogonalEdgeStyle;rounded=0;orthogonalLoop=1;jettySize=auto;html=1;" edge="1" parent="1" source="SWDVZIPFguw2Itc3JiJM-7" target="SWDVZIPFguw2Itc3JiJM-18">
          <mxGeometry relative="1" as="geometry" />
        </mxCell>
        <mxCell id="SWDVZIPFguw2Itc3JiJM-56" value="СМС-оповещение" style="edgeLabel;html=1;align=center;verticalAlign=middle;resizable=0;points=[];" vertex="1" connectable="0" parent="SWDVZIPFguw2Itc3JiJM-55">
          <mxGeometry x="0.0108" y="-4" relative="1" as="geometry">
            <mxPoint as="offset" />
          </mxGeometry>
        </mxCell>
        <mxCell id="SWDVZIPFguw2Itc3JiJM-7" value="Телеком-оператор" style="rounded=1;whiteSpace=wrap;html=1;fillColor=#f5f5f5;fontColor=#333333;strokeColor=#666666;" vertex="1" parent="1">
          <mxGeometry x="1410" y="1000" width="120" height="60" as="geometry" />
        </mxCell>
        <mxCell id="SWDVZIPFguw2Itc3JiJM-8" value="Сайт" style="rounded=1;whiteSpace=wrap;html=1;fillColor=#fff2cc;strokeColor=#d6b656;" vertex="1" parent="1">
          <mxGeometry x="827" y="1050" width="120" height="60" as="geometry" />
        </mxCell>
        <mxCell id="SWDVZIPFguw2Itc3JiJM-20" value="" style="edgeStyle=orthogonalEdgeStyle;rounded=0;orthogonalLoop=1;jettySize=auto;html=1;" edge="1" parent="1" source="SWDVZIPFguw2Itc3JiJM-9" target="SWDVZIPFguw2Itc3JiJM-10">
          <mxGeometry relative="1" as="geometry" />
        </mxCell>
        <mxCell id="SWDVZIPFguw2Itc3JiJM-21" value="Получение скоринга&lt;div&gt;(API)&lt;/div&gt;" style="edgeLabel;html=1;align=center;verticalAlign=middle;resizable=0;points=[];" vertex="1" connectable="0" parent="SWDVZIPFguw2Itc3JiJM-20">
          <mxGeometry x="0.194" y="-2" relative="1" as="geometry">
            <mxPoint x="-10" y="-2" as="offset" />
          </mxGeometry>
        </mxCell>
        <mxCell id="SWDVZIPFguw2Itc3JiJM-34" style="edgeStyle=orthogonalEdgeStyle;rounded=0;orthogonalLoop=1;jettySize=auto;html=1;entryX=0.5;entryY=0;entryDx=0;entryDy=0;" edge="1" parent="1" source="SWDVZIPFguw2Itc3JiJM-9" target="SWDVZIPFguw2Itc3JiJM-10">
          <mxGeometry relative="1" as="geometry">
            <Array as="points">
              <mxPoint x="610" y="480" />
              <mxPoint x="887" y="480" />
            </Array>
          </mxGeometry>
        </mxCell>
        <mxCell id="SWDVZIPFguw2Itc3JiJM-35" value="Загрузка данных о платежах&lt;div&gt;(Ежедневно, БД)&lt;/div&gt;" style="edgeLabel;html=1;align=center;verticalAlign=middle;resizable=0;points=[];" vertex="1" connectable="0" parent="SWDVZIPFguw2Itc3JiJM-34">
          <mxGeometry x="-0.03" relative="1" as="geometry">
            <mxPoint as="offset" />
          </mxGeometry>
        </mxCell>
        <mxCell id="SWDVZIPFguw2Itc3JiJM-9" value="Кредитный конвейер" style="rounded=1;whiteSpace=wrap;html=1;fillColor=#fff2cc;strokeColor=#d6b656;" vertex="1" parent="1">
          <mxGeometry x="550" y="520" width="120" height="60" as="geometry" />
        </mxCell>
        <mxCell id="SWDVZIPFguw2Itc3JiJM-22" value="" style="edgeStyle=orthogonalEdgeStyle;rounded=0;orthogonalLoop=1;jettySize=auto;html=1;" edge="1" parent="1" source="SWDVZIPFguw2Itc3JiJM-10" target="SWDVZIPFguw2Itc3JiJM-11">
          <mxGeometry relative="1" as="geometry" />
        </mxCell>
        <mxCell id="SWDVZIPFguw2Itc3JiJM-23" value="Получение кредитной истории&lt;div&gt;(REST API)&lt;/div&gt;" style="edgeLabel;html=1;align=center;verticalAlign=middle;resizable=0;points=[];" vertex="1" connectable="0" parent="SWDVZIPFguw2Itc3JiJM-22">
          <mxGeometry x="-0.2667" y="-3" relative="1" as="geometry">
            <mxPoint x="3" y="12" as="offset" />
          </mxGeometry>
        </mxCell>
        <mxCell id="SWDVZIPFguw2Itc3JiJM-10" value="Система кредитного скоринга" style="rounded=1;whiteSpace=wrap;html=1;fillColor=#fff2cc;strokeColor=#d6b656;" vertex="1" parent="1">
          <mxGeometry x="827" y="520" width="120" height="60" as="geometry" />
        </mxCell>
        <mxCell id="SWDVZIPFguw2Itc3JiJM-11" value="Бюро кредитных историй" style="rounded=1;whiteSpace=wrap;html=1;fillColor=#f5f5f5;fontColor=#333333;strokeColor=#666666;" vertex="1" parent="1">
          <mxGeometry x="827" y="710" width="120" height="60" as="geometry" />
        </mxCell>
        <mxCell id="SWDVZIPFguw2Itc3JiJM-12" value="Менеджер фронт-офиса" style="shape=umlActor;verticalLabelPosition=bottom;verticalAlign=top;html=1;outlineConnect=0;fillColor=#fff2cc;strokeColor=#d6b656;" vertex="1" parent="1">
          <mxGeometry x="450" y="330" width="30" height="60" as="geometry" />
        </mxCell>
        <mxCell id="SWDVZIPFguw2Itc3JiJM-14" value="Менеджер по депозитным продуктам" style="shape=umlActor;verticalLabelPosition=bottom;verticalAlign=top;html=1;outlineConnect=0;fillColor=#fff2cc;strokeColor=#d6b656;" vertex="1" parent="1">
          <mxGeometry x="450" y="10" width="30" height="60" as="geometry" />
        </mxCell>
        <mxCell id="SWDVZIPFguw2Itc3JiJM-19" value="" style="edgeStyle=orthogonalEdgeStyle;rounded=0;orthogonalLoop=1;jettySize=auto;html=1;" edge="1" parent="1" source="SWDVZIPFguw2Itc3JiJM-15" target="SWDVZIPFguw2Itc3JiJM-9">
          <mxGeometry relative="1" as="geometry" />
        </mxCell>
        <mxCell id="SWDVZIPFguw2Itc3JiJM-15" value="Менеджер по кредитным продуктам" style="shape=umlActor;verticalLabelPosition=bottom;verticalAlign=top;html=1;outlineConnect=0;fillColor=#fff2cc;strokeColor=#d6b656;" vertex="1" parent="1">
          <mxGeometry x="450" y="520" width="30" height="60" as="geometry" />
        </mxCell>
        <mxCell id="SWDVZIPFguw2Itc3JiJM-49" style="edgeStyle=orthogonalEdgeStyle;rounded=0;orthogonalLoop=1;jettySize=auto;html=1;" edge="1" parent="1" source="SWDVZIPFguw2Itc3JiJM-16" target="SWDVZIPFguw2Itc3JiJM-4">
          <mxGeometry relative="1" as="geometry" />
        </mxCell>
        <mxCell id="SWDVZIPFguw2Itc3JiJM-50" value="Регистрация обращения" style="edgeLabel;html=1;align=center;verticalAlign=middle;resizable=0;points=[];" vertex="1" connectable="0" parent="SWDVZIPFguw2Itc3JiJM-49">
          <mxGeometry x="-0.0786" y="-5" relative="1" as="geometry">
            <mxPoint x="1" y="-5" as="offset" />
          </mxGeometry>
        </mxCell>
        <mxCell id="SWDVZIPFguw2Itc3JiJM-16" value="Оператор кол-центра" style="shape=umlActor;verticalLabelPosition=bottom;verticalAlign=top;html=1;outlineConnect=0;fillColor=#fff2cc;strokeColor=#d6b656;" vertex="1" parent="1">
          <mxGeometry x="450" y="110" width="30" height="60" as="geometry" />
        </mxCell>
        <mxCell id="SWDVZIPFguw2Itc3JiJM-47" style="edgeStyle=orthogonalEdgeStyle;rounded=0;orthogonalLoop=1;jettySize=auto;html=1;" edge="1" parent="1" source="SWDVZIPFguw2Itc3JiJM-17" target="SWDVZIPFguw2Itc3JiJM-5">
          <mxGeometry relative="1" as="geometry" />
        </mxCell>
        <mxCell id="SWDVZIPFguw2Itc3JiJM-48" value="Регистрация обращения" style="edgeLabel;html=1;align=center;verticalAlign=middle;resizable=0;points=[];" vertex="1" connectable="0" parent="SWDVZIPFguw2Itc3JiJM-47">
          <mxGeometry x="-0.1071" y="-2" relative="1" as="geometry">
            <mxPoint y="-2" as="offset" />
          </mxGeometry>
        </mxCell>
        <mxCell id="SWDVZIPFguw2Itc3JiJM-17" value="Оператор кол-центра (партнёра)" style="shape=umlActor;verticalLabelPosition=bottom;verticalAlign=top;html=1;outlineConnect=0;fillColor=#f5f5f5;fontColor=#333333;strokeColor=#666666;" vertex="1" parent="1">
          <mxGeometry x="450" y="210" width="30" height="60" as="geometry" />
        </mxCell>
        <mxCell id="SWDVZIPFguw2Itc3JiJM-67" style="edgeStyle=orthogonalEdgeStyle;rounded=0;orthogonalLoop=1;jettySize=auto;html=1;" edge="1" parent="1" source="SWDVZIPFguw2Itc3JiJM-18" target="SWDVZIPFguw2Itc3JiJM-8">
          <mxGeometry relative="1" as="geometry">
            <Array as="points">
              <mxPoint x="465" y="1080" />
            </Array>
          </mxGeometry>
        </mxCell>
        <mxCell id="SWDVZIPFguw2Itc3JiJM-69" value="Чтение маркетинговой информации" style="edgeLabel;html=1;align=center;verticalAlign=middle;resizable=0;points=[];" vertex="1" connectable="0" parent="SWDVZIPFguw2Itc3JiJM-67">
          <mxGeometry x="0.0314" relative="1" as="geometry">
            <mxPoint as="offset" />
          </mxGeometry>
        </mxCell>
        <mxCell id="SWDVZIPFguw2Itc3JiJM-68" style="edgeStyle=orthogonalEdgeStyle;rounded=0;orthogonalLoop=1;jettySize=auto;html=1;entryX=0;entryY=0.5;entryDx=0;entryDy=0;" edge="1" parent="1" source="SWDVZIPFguw2Itc3JiJM-18" target="SWDVZIPFguw2Itc3JiJM-2">
          <mxGeometry relative="1" as="geometry">
            <Array as="points">
              <mxPoint x="465" y="1180" />
            </Array>
          </mxGeometry>
        </mxCell>
        <mxCell id="SWDVZIPFguw2Itc3JiJM-70" value="Проведение платежей и открытие дебетовых карт" style="edgeLabel;html=1;align=center;verticalAlign=middle;resizable=0;points=[];" vertex="1" connectable="0" parent="SWDVZIPFguw2Itc3JiJM-68">
          <mxGeometry x="0.1452" y="-1" relative="1" as="geometry">
            <mxPoint x="19" y="-1" as="offset" />
          </mxGeometry>
        </mxCell>
        <mxCell id="SWDVZIPFguw2Itc3JiJM-18" value="Клиент" style="shape=umlActor;verticalLabelPosition=bottom;verticalAlign=top;html=1;outlineConnect=0;fillColor=#dae8fc;strokeColor=#6c8ebf;" vertex="1" parent="1">
          <mxGeometry x="450" y="1000" width="30" height="60" as="geometry" />
        </mxCell>
        <mxCell id="SWDVZIPFguw2Itc3JiJM-40" style="edgeStyle=orthogonalEdgeStyle;rounded=0;orthogonalLoop=1;jettySize=auto;html=1;entryX=0.5;entryY=1;entryDx=0;entryDy=0;exitX=0.5;exitY=1;exitDx=0;exitDy=0;" edge="1" parent="1" source="SWDVZIPFguw2Itc3JiJM-9" target="SWDVZIPFguw2Itc3JiJM-3">
          <mxGeometry relative="1" as="geometry">
            <mxPoint x="590" y="660" as="sourcePoint" />
            <mxPoint x="1470" y="930" as="targetPoint" />
            <Array as="points">
              <mxPoint x="610" y="840" />
              <mxPoint x="1410" y="840" />
            </Array>
          </mxGeometry>
        </mxCell>
        <mxCell id="SWDVZIPFguw2Itc3JiJM-41" value="Передача статусов заявок&lt;div&gt;(Ежедневно)&lt;/div&gt;" style="edgeLabel;html=1;align=center;verticalAlign=middle;resizable=0;points=[];" vertex="1" connectable="0" parent="SWDVZIPFguw2Itc3JiJM-40">
          <mxGeometry x="-0.0371" y="2" relative="1" as="geometry">
            <mxPoint x="118" y="2" as="offset" />
          </mxGeometry>
        </mxCell>
        <mxCell id="SWDVZIPFguw2Itc3JiJM-43" style="edgeStyle=orthogonalEdgeStyle;rounded=0;orthogonalLoop=1;jettySize=auto;html=1;" edge="1" parent="1" source="SWDVZIPFguw2Itc3JiJM-12" target="SWDVZIPFguw2Itc3JiJM-3">
          <mxGeometry relative="1" as="geometry">
            <Array as="points">
              <mxPoint x="1150" y="360" />
              <mxPoint x="1150" y="360" />
            </Array>
          </mxGeometry>
        </mxCell>
        <mxCell id="SWDVZIPFguw2Itc3JiJM-44" value="Оформление заявки" style="edgeLabel;html=1;align=center;verticalAlign=middle;resizable=0;points=[];" vertex="1" connectable="0" parent="SWDVZIPFguw2Itc3JiJM-43">
          <mxGeometry x="-0.1876" y="4" relative="1" as="geometry">
            <mxPoint x="38" y="4" as="offset" />
          </mxGeometry>
        </mxCell>
        <mxCell id="SWDVZIPFguw2Itc3JiJM-51" style="edgeStyle=orthogonalEdgeStyle;rounded=0;orthogonalLoop=1;jettySize=auto;html=1;entryX=0.012;entryY=0.207;entryDx=0;entryDy=0;entryPerimeter=0;" edge="1" parent="1" source="SWDVZIPFguw2Itc3JiJM-4" target="SWDVZIPFguw2Itc3JiJM-3">
          <mxGeometry relative="1" as="geometry" />
        </mxCell>
        <mxCell id="SWDVZIPFguw2Itc3JiJM-53" value="Регистрация заявки" style="edgeLabel;html=1;align=center;verticalAlign=middle;resizable=0;points=[];" vertex="1" connectable="0" parent="SWDVZIPFguw2Itc3JiJM-51">
          <mxGeometry x="-0.2147" y="-1" relative="1" as="geometry">
            <mxPoint x="-1" as="offset" />
          </mxGeometry>
        </mxCell>
        <mxCell id="SWDVZIPFguw2Itc3JiJM-52" style="edgeStyle=orthogonalEdgeStyle;rounded=0;orthogonalLoop=1;jettySize=auto;html=1;entryX=-0.004;entryY=0.325;entryDx=0;entryDy=0;entryPerimeter=0;" edge="1" parent="1" source="SWDVZIPFguw2Itc3JiJM-5" target="SWDVZIPFguw2Itc3JiJM-3">
          <mxGeometry relative="1" as="geometry" />
        </mxCell>
        <mxCell id="SWDVZIPFguw2Itc3JiJM-54" value="Регистрация заявки" style="edgeLabel;html=1;align=center;verticalAlign=middle;resizable=0;points=[];" vertex="1" connectable="0" parent="SWDVZIPFguw2Itc3JiJM-52">
          <mxGeometry x="-0.3611" y="2" relative="1" as="geometry">
            <mxPoint x="32" y="2" as="offset" />
          </mxGeometry>
        </mxCell>
        <mxCell id="SWDVZIPFguw2Itc3JiJM-62" value="Отправка СМС-оповещения" style="edgeLabel;html=1;align=center;verticalAlign=middle;resizable=0;points=[];" vertex="1" connectable="0" parent="1">
          <mxGeometry x="1470" y="980" as="geometry" />
        </mxCell>
        <mxCell id="SWDVZIPFguw2Itc3JiJM-63" style="edgeStyle=orthogonalEdgeStyle;rounded=0;orthogonalLoop=1;jettySize=auto;html=1;" edge="1" parent="1" source="SWDVZIPFguw2Itc3JiJM-14">
          <mxGeometry relative="1" as="geometry">
            <mxPoint x="1279" y="40" as="targetPoint" />
          </mxGeometry>
        </mxCell>
        <mxCell id="SWDVZIPFguw2Itc3JiJM-64" value="Обработка заявок" style="edgeLabel;html=1;align=center;verticalAlign=middle;resizable=0;points=[];" vertex="1" connectable="0" parent="SWDVZIPFguw2Itc3JiJM-63">
          <mxGeometry x="-0.3141" y="-2" relative="1" as="geometry">
            <mxPoint x="73" y="-2" as="offset" />
          </mxGeometry>
        </mxCell>
        <mxCell id="SWDVZIPFguw2Itc3JiJM-73" value="" style="rounded=0;whiteSpace=wrap;html=1;" vertex="1" parent="1">
          <mxGeometry x="30" width="200" height="430" as="geometry" />
        </mxCell>
        <mxCell id="SWDVZIPFguw2Itc3JiJM-74" value="&lt;b&gt;&lt;font style=&quot;font-size: 14px;&quot;&gt;Легенда&lt;/font&gt;&lt;/b&gt;" style="rounded=0;whiteSpace=wrap;html=1;align=center;" vertex="1" parent="1">
          <mxGeometry x="30" width="200" height="30" as="geometry" />
        </mxCell>
        <mxCell id="SWDVZIPFguw2Itc3JiJM-75" value="Внутренняя система компании" style="rounded=1;whiteSpace=wrap;html=1;fillColor=#fff2cc;strokeColor=#d6b656;" vertex="1" parent="1">
          <mxGeometry x="40" y="40" width="180" height="30" as="geometry" />
        </mxCell>
        <mxCell id="SWDVZIPFguw2Itc3JiJM-76" value="Внешняя система" style="rounded=1;whiteSpace=wrap;html=1;fillColor=#f5f5f5;fontColor=#333333;strokeColor=#666666;" vertex="1" parent="1">
          <mxGeometry x="40" y="80" width="180" height="30" as="geometry" />
        </mxCell>
        <mxCell id="SWDVZIPFguw2Itc3JiJM-77" value="Сотрудник компании" style="shape=umlActor;verticalLabelPosition=bottom;verticalAlign=top;html=1;outlineConnect=0;fillColor=#fff2cc;strokeColor=#d6b656;" vertex="1" parent="1">
          <mxGeometry x="110" y="120" width="30" height="60" as="geometry" />
        </mxCell>
        <mxCell id="SWDVZIPFguw2Itc3JiJM-78" value="Внешний партнёр компании" style="shape=umlActor;verticalLabelPosition=bottom;verticalAlign=top;html=1;outlineConnect=0;fillColor=#f5f5f5;fontColor=#333333;strokeColor=#666666;" vertex="1" parent="1">
          <mxGeometry x="110" y="230" width="30" height="60" as="geometry" />
        </mxCell>
        <mxCell id="SWDVZIPFguw2Itc3JiJM-79" value="Клиент компании" style="shape=umlActor;verticalLabelPosition=bottom;verticalAlign=top;html=1;outlineConnect=0;fillColor=#dae8fc;strokeColor=#6c8ebf;" vertex="1" parent="1">
          <mxGeometry x="110" y="330" width="30" height="60" as="geometry" />
        </mxCell>
      </root>
    </mxGraphModel>
  </diagram>
</mxfile>
